<?xml version="1.0" encoding="UTF-8"?>
<svg xmlns="http://www.w3.org/2000/svg" xmlns:xlink="http://www.w3.org/1999/xlink" width="px" height="24px" viewBox="0 0 24 24" version="1.1">
<g id="surface1">
<path style=" stroke:none;fill-rule:evenodd;fill:rgb(100%,100%,100%);fill-opacity:1;" d="M 22 10.761719 L 22 17.601562 C 22 19.441406 20.511719 20.929688 18.671875 20.929688 L 17.441406 20.929688 C 16.890625 20.929688 16.441406 20.480469 16.441406 19.929688 L 16.441406 19.710938 C 16.441406 19.160156 16.890625 18.710938 17.441406 18.710938 L 18.671875 18.710938 C 19.28125 18.710938 19.78125 18.210938 19.78125 17.601562 L 19.78125 10.761719 C 19.78125 10.410156 19.621094 10.089844 19.339844 9.878906 L 12.671875 4.78125 C 12.28125 4.46875 11.71875 4.46875 11.328125 4.78125 L 4.660156 9.878906 C 4.378906 10.089844 4.21875 10.410156 4.21875 10.761719 L 4.21875 17.601562 C 4.21875 18.210938 4.71875 18.710938 5.328125 18.710938 L 6.558594 18.710938 C 7.109375 18.710938 7.558594 19.160156 7.558594 19.710938 L 7.558594 19.929688 C 7.558594 20.480469 7.109375 20.929688 6.558594 20.929688 L 5.328125 20.929688 C 3.488281 20.929688 2 19.441406 2 17.601562 L 2 10.761719 C 2 9.71875 2.480469 8.738281 3.308594 8.109375 L 9.980469 3.011719 C 11.171875 2.101562 12.828125 2.101562 14.019531 3.011719 L 20.691406 8.109375 C 21.519531 8.738281 22 9.71875 22 10.761719 Z M 11.890625 11.148438 L 12.109375 11.148438 C 13.769531 11.148438 15.109375 12.5 15.109375 14.148438 L 15.109375 17.710938 C 15.109375 19.359375 13.769531 20.710938 12.109375 20.710938 L 11.890625 20.710938 C 10.230469 20.710938 8.890625 19.359375 8.890625 17.710938 L 8.890625 14.148438 C 8.890625 12.5 10.230469 11.148438 11.890625 11.148438 Z M 13.109375 14.148438 C 13.109375 13.601562 12.660156 13.148438 12.109375 13.148438 L 11.890625 13.148438 C 11.339844 13.148438 10.890625 13.601562 10.890625 14.148438 L 10.890625 17.710938 C 10.890625 18.261719 11.339844 18.710938 11.890625 18.710938 L 12.109375 18.710938 C 12.660156 18.710938 13.109375 18.261719 13.109375 17.710938 Z M 13.109375 14.148438 "/>
</g>
</svg>
