<?xml version="1.0" encoding="UTF-8"?>
<svg xmlns="http://www.w3.org/2000/svg" xmlns:xlink="http://www.w3.org/1999/xlink" width="px" height="24px" viewBox="0 0 24 24" version="1.1">
<g id="surface1">
<path style=" stroke:none;fill-rule:nonzero;fill:rgb(100%,100%,100%);fill-opacity:1;" d="M 7 7 C 6.449219 7 6 7.449219 6 8 C 6 8.550781 6.449219 9 7 9 L 13 9 C 13.550781 9 14 8.550781 14 8 C 14 7.449219 13.550781 7 13 7 Z M 7 7 "/>
<path style=" stroke:none;fill-rule:nonzero;fill:rgb(100%,100%,100%);fill-opacity:1;" d="M 6 12 C 6 11.449219 6.449219 11 7 11 L 13 11 C 13.550781 11 14 11.449219 14 12 C 14 12.550781 13.550781 13 13 13 L 7 13 C 6.449219 13 6 12.550781 6 12 Z M 6 12 "/>
<path style=" stroke:none;fill-rule:nonzero;fill:rgb(100%,100%,100%);fill-opacity:1;" d="M 7 15 C 6.449219 15 6 15.449219 6 16 C 6 16.550781 6.449219 17 7 17 L 13 17 C 13.550781 17 14 16.550781 14 16 C 14 15.449219 13.550781 15 13 15 Z M 7 15 "/>
<path style=" stroke:none;fill-rule:evenodd;fill:rgb(100%,100%,100%);fill-opacity:1;" d="M 5.628906 21 L 18.378906 21 C 20.390625 21 22 19.339844 22 17.328125 L 22 6.671875 C 22 4.660156 20.390625 3 18.378906 3 L 5.628906 3 C 3.609375 3 2 4.660156 2 6.671875 L 2 17.328125 C 2 19.339844 3.609375 21 5.628906 21 Z M 5.628906 5 C 4.738281 5 4 5.730469 4 6.671875 L 4 17.328125 C 4 18.269531 4.738281 19 5.628906 19 L 14.378906 19 C 15.261719 19 16 18.269531 16 17.328125 L 16 6.671875 C 16 5.730469 15.261719 5 14.378906 5 Z M 18.378906 19 L 17.601562 19 C 17.859375 18.5 18 17.929688 18 17.328125 L 18 6.671875 C 18 6.070312 17.859375 5.5 17.601562 5 L 18.378906 5 C 19.261719 5 20 5.730469 20 6.671875 L 20 17.328125 C 20 18.269531 19.261719 19 18.378906 19 Z M 18.378906 19 "/>
</g>
</svg>
