<?xml version="1.0" encoding="UTF-8"?>
<svg xmlns="http://www.w3.org/2000/svg" xmlns:xlink="http://www.w3.org/1999/xlink" width="px" height="24px" viewBox="0 0 24 24" version="1.1">
<g id="surface1">
<path style=" stroke:none;fill-rule:nonzero;fill:rgb(100%,100%,100%);fill-opacity:1;" d="M 12 7 C 12.550781 7 13 7.449219 13 8 L 13 13 C 13 13.550781 12.550781 14 12 14 C 11.449219 14 11 13.550781 11 13 L 11 8 C 11 7.449219 11.449219 7 12 7 Z M 12 7 "/>
<path style=" stroke:none;fill-rule:nonzero;fill:rgb(100%,100%,100%);fill-opacity:1;" d="M 13 16 C 13 16.550781 12.550781 17 12 17 C 11.449219 17 11 16.550781 11 16 C 11 15.449219 11.449219 15 12 15 C 12.550781 15 13 15.449219 13 16 Z M 13 16 "/>
<path style=" stroke:none;fill-rule:evenodd;fill:rgb(100%,100%,100%);fill-opacity:1;" d="M 7 2 C 4.238281 2 2 4.238281 2 7 L 2 17 C 2 19.761719 4.238281 22 7 22 L 17 22 C 19.761719 22 22 19.761719 22 17 L 22 7 C 22 4.238281 19.761719 2 17 2 Z M 4 7 C 4 5.339844 5.339844 4 7 4 L 17 4 C 18.660156 4 20 5.339844 20 7 L 20 17 C 20 18.660156 18.660156 20 17 20 L 7 20 C 5.339844 20 4 18.660156 4 17 Z M 4 7 "/>
</g>
</svg>
