<?xml version="1.0" encoding="UTF-8"?>
<svg xmlns="http://www.w3.org/2000/svg" xmlns:xlink="http://www.w3.org/1999/xlink" width="px" height="24px" viewBox="0 0 24 24" version="1.1">
<g id="surface1">
<path style=" stroke:none;fill-rule:evenodd;fill:rgb(100%,100%,100%);fill-opacity:1;" d="M 7 3 C 5.339844 3 4 4.339844 4 6 L 4 18 C 4 19.660156 5.339844 21 7 21 L 17 21 C 18.660156 21 20 19.660156 20 18 L 20 6 C 20 4.339844 18.660156 3 17 3 Z M 18 6 C 18 5.449219 17.550781 5 17 5 L 7 5 C 6.449219 5 6 5.449219 6 6 L 6 14 L 8.941406 14 C 9.449219 14 9.949219 14.179688 10.339844 14.488281 C 11.308594 15.261719 12.679688 15.261719 13.640625 14.511719 C 14.050781 14.179688 14.558594 14 15.101562 14 L 18 14 Z M 6 16 L 6 18 C 6 18.550781 6.449219 19 7 19 L 17 19 C 17.550781 19 18 18.550781 18 18 L 18 16 L 15.101562 16 C 15.019531 16 14.941406 16.03125 14.878906 16.078125 C 13.191406 17.421875 10.78125 17.390625 9.101562 16.058594 C 9.050781 16.019531 8.988281 16 8.941406 16 Z M 8 11 C 8 10.449219 8.449219 10 9 10 L 15 10 C 15.550781 10 16 10.449219 16 11 C 16 11.550781 15.550781 12 15 12 L 9 12 C 8.449219 12 8 11.550781 8 11 Z M 9 7 C 8.449219 7 8 7.449219 8 8 C 8 8.550781 8.449219 9 9 9 L 15 9 C 15.550781 9 16 8.550781 16 8 C 16 7.449219 15.550781 7 15 7 Z M 9 7 "/>
</g>
</svg>
