<?xml version="1.0" encoding="UTF-8"?>
<svg xmlns="http://www.w3.org/2000/svg" xmlns:xlink="http://www.w3.org/1999/xlink" width="px" height="24px" viewBox="0 0 33 24" version="1.1">
<defs>
<linearGradient id="linear0" gradientUnits="userSpaceOnUse" x1="30.72" y1="15.95" x2="22.16" y2="30.77" gradientTransform="matrix(0.68328,0,0,0.701549,0.101286,0)">
<stop offset="0" style="stop-color:rgb(18.431373%,63.921569%,75.294118%);stop-opacity:1;"/>
<stop offset="0.36" style="stop-color:rgb(19.607843%,64.705882%,75.686275%);stop-opacity:1;"/>
<stop offset="1" style="stop-color:rgb(54.509804%,83.137255%,88.627451%);stop-opacity:1;"/>
</linearGradient>
<linearGradient id="linear1" gradientUnits="userSpaceOnUse" x1="14.06" y1="34.21" x2="14.06" y2="28.91" gradientTransform="matrix(0.68328,0,0,0.701549,0.101286,0)">
<stop offset="0.35" style="stop-color:rgb(18.431373%,63.921569%,75.294118%);stop-opacity:1;"/>
<stop offset="1" style="stop-color:rgb(54.509804%,83.137255%,88.627451%);stop-opacity:1;"/>
</linearGradient>
<linearGradient id="linear2" gradientUnits="userSpaceOnUse" x1="19.42" y1="5.89" x2="5.36" y2="30.24" gradientTransform="matrix(0.68328,0,0,0.701549,0.101286,0)">
<stop offset="0" style="stop-color:rgb(18.431373%,63.921569%,75.294118%);stop-opacity:1;"/>
<stop offset="0.18" style="stop-color:rgb(18.431373%,63.921569%,75.294118%);stop-opacity:1;"/>
<stop offset="1" style="stop-color:rgb(54.509804%,83.137255%,88.627451%);stop-opacity:1;"/>
</linearGradient>
</defs>
<g id="surface1">
<path style=" stroke:none;fill-rule:nonzero;fill:url(#linear0);" d="M 23.441406 23.910156 L 23.496094 24 L 19.316406 24 L 17.222656 20.28125 L 11.800781 10.636719 L 13.890625 6.917969 L 21.40625 20.28125 Z M 23.441406 23.910156 "/>
<path style=" stroke:none;fill-rule:nonzero;fill:rgb(20.392157%,32.54902%,54.117647%);fill-opacity:1;" d="M 18.1875 17.382812 C 15.890625 17.347656 13.617188 16.914062 11.457031 16.109375 C 9.835938 15.519531 8.339844 14.617188 7.050781 13.449219 C 5.335938 11.652344 4.714844 10.207031 4.800781 8.382812 C 4.855469 7.65625 5.035156 6.941406 5.335938 6.277344 C 5.667969 5.597656 6.09375 4.96875 6.597656 4.414062 C 7.34375 3.597656 8.207031 2.90625 9.15625 2.363281 C 10.019531 1.90625 10.90625 1.5 11.8125 1.144531 C 11.8125 1.144531 11.8125 1.71875 11.8125 2.28125 L 11.8125 3.191406 L 11.320312 3.402344 C 10.695312 3.679688 10.097656 4.015625 9.539062 4.414062 C 8.703125 4.957031 7.988281 5.671875 7.441406 6.515625 C 6.753906 7.609375 6.621094 8.972656 7.085938 10.179688 C 7.238281 10.5625 7.4375 10.925781 7.679688 11.261719 C 8.648438 12.480469 9.898438 13.429688 11.320312 14.023438 C 14.238281 15.226562 17.382812 15.722656 20.519531 15.46875 C 21.167969 15.410156 21.8125 15.308594 22.453125 15.167969 C 25.429688 14.542969 27.519531 13.765625 29.15625 12.636719 C 30.199219 11.933594 30.734375 11.105469 30.734375 10.222656 C 30.742188 9.9375 30.675781 9.652344 30.546875 9.402344 C 30.058594 8.566406 29.179688 8.054688 28.230469 8.046875 L 27.882812 8.011719 L 27.882812 6.328125 L 28.117188 6.328125 C 28.53125 6.335938 28.945312 6.371094 29.351562 6.441406 C 30.320312 6.582031 31.210938 7.050781 31.894531 7.765625 C 32.339844 8.203125 32.65625 8.757812 32.804688 9.371094 C 32.882812 9.636719 32.914062 9.917969 32.898438 10.195312 C 32.914062 10.460938 32.890625 10.726562 32.835938 10.984375 C 32.488281 12.640625 31.09375 14.171875 28.910156 15.28125 C 26.300781 16.484375 23.5 17.183594 20.648438 17.34375 C 20.285156 17.34375 18.535156 17.398438 18.1875 17.34375 Z M 18.605469 6.789062 L 18.605469 0.0078125 L 18.851562 0.0078125 C 19.210938 -0.0273438 20.613281 0.078125 21.015625 0.113281 C 22.050781 0.222656 23.082031 0.390625 24.097656 0.617188 L 24.097656 1.480469 C 24.097656 2 24.097656 2.539062 24.097656 2.554688 C 24.097656 2.566406 23.996094 2.554688 23.851562 2.484375 C 23.53125 2.398438 22.71875 2.253906 22.382812 2.195312 C 21.769531 2.089844 21.152344 2.019531 20.53125 1.984375 L 20.386719 1.984375 L 20.386719 12.648438 L 19.519531 13.070312 L 18.636719 13.484375 C 18.636719 13.484375 18.636719 10.472656 18.636719 6.785156 Z M 20.777344 9.828125 L 20.777344 9.042969 L 20.949219 8.964844 L 21.195312 8.855469 L 23.761719 7.695312 L 24.515625 7.359375 C 24.566406 7.332031 24.621094 7.308594 24.679688 7.289062 C 24.679688 7.289062 24.679688 7.632812 24.679688 8.054688 L 24.679688 8.824219 L 23.511719 9.367188 L 21.605469 10.234375 L 20.824219 10.585938 C 20.785156 10.585938 20.777344 10.542969 20.777344 9.820312 Z M 25.035156 0.90625 L 26.960938 1.605469 L 26.960938 8.964844 L 25.996094 9.351562 L 25.039062 9.757812 C 25.039062 9.757812 25.035156 0.941406 25.035156 0.90625 Z M 24.433594 6.363281 L 24.105469 6.207031 L 21.015625 4.804688 L 20.789062 4.699219 L 20.789062 3.941406 C 20.773438 3.691406 20.773438 3.4375 20.789062 3.183594 C 20.789062 3.183594 23.238281 4.320312 23.949219 4.660156 L 24.363281 4.855469 L 24.679688 5.003906 L 24.679688 5.703125 C 24.691406 5.9375 24.691406 6.171875 24.679688 6.40625 L 24.441406 6.308594 Z M 12.722656 1.949219 L 12.722656 0.871094 L 12.890625 0.835938 C 14.269531 0.402344 15.691406 0.148438 17.128906 0.078125 L 17.441406 0.078125 L 17.441406 0.433594 C 17.441406 0.601562 17.441406 1.023438 17.441406 1.367188 L 17.441406 1.949219 L 17.128906 1.949219 C 15.738281 2.0625 14.363281 2.324219 13.027344 2.734375 L 12.714844 2.835938 L 12.714844 1.949219 Z M 12.722656 1.949219 "/>
<path style=" stroke:none;fill-rule:nonzero;fill:url(#linear1);" d="M 19.316406 24 L 0.101562 24 L 0.15625 23.910156 L 2.191406 20.28125 L 17.222656 20.28125 Z M 19.316406 24 "/>
<path style=" stroke:none;fill-rule:nonzero;fill:url(#linear2);" d="M 13.890625 6.917969 L 11.800781 10.636719 L 6.375 20.28125 L 2.191406 20.28125 L 9.707031 6.917969 L 11.800781 3.199219 Z M 13.890625 6.917969 "/>
</g>
</svg>
