<?xml version="1.0" encoding="UTF-8"?>
<svg xmlns="http://www.w3.org/2000/svg" xmlns:xlink="http://www.w3.org/1999/xlink" width="px" height="24px" viewBox="0 0 24 24" version="1.1">
<g id="surface1">
<path style=" stroke:none;fill-rule:nonzero;fill:rgb(100%,100%,100%);fill-opacity:1;" d="M 13 2 C 10.238281 2 8 4.238281 8 7 C 8 7.550781 8.449219 8 9 8 C 9.550781 8 10 7.550781 10 7 C 10 5.34375 11.34375 4 13 4 L 17 4 C 18.65625 4 20 5.34375 20 7 L 20 17 C 20 18.65625 18.65625 20 17 20 L 13 20 C 11.34375 20 10 18.65625 10 17 C 10 16.449219 9.550781 16 9 16 C 8.449219 16 8 16.449219 8 17 C 8 19.761719 10.238281 22 13 22 L 17 22 C 19.761719 22 22 19.761719 22 17 L 22 7 C 22 4.238281 19.761719 2 17 2 Z M 13 2 "/>
<path style=" stroke:none;fill-rule:nonzero;fill:rgb(100%,100%,100%);fill-opacity:1;" d="M 14 11 C 14.550781 11 15 11.449219 15 12 C 15 12.550781 14.550781 13 14 13 Z M 14 11 "/>
<path style=" stroke:none;fill-rule:nonzero;fill:rgb(100%,100%,100%);fill-opacity:1;" d="M 5.71875 11 C 5.808594 10.890625 5.890625 10.785156 5.972656 10.683594 C 6.21875 10.371094 6.425781 10.101562 6.574219 9.90625 C 6.644531 9.808594 6.703125 9.730469 6.746094 9.675781 L 6.792969 9.613281 L 6.804688 9.59375 L 6.808594 9.589844 C 6.808594 9.589844 6.808594 9.585938 6 9 L 6.808594 9.589844 C 7.132812 9.140625 7.035156 8.515625 6.585938 8.191406 C 6.140625 7.867188 5.515625 7.964844 5.191406 8.414062 L 5.1875 8.417969 L 5.179688 8.429688 L 5.136719 8.488281 C 5.097656 8.535156 5.042969 8.609375 4.976562 8.703125 C 4.835938 8.886719 4.640625 9.144531 4.40625 9.4375 C 3.933594 10.035156 3.335938 10.75 2.792969 11.292969 L 2.085938 12 L 2.792969 12.707031 C 3.335938 13.25 3.933594 13.964844 4.40625 14.5625 C 4.640625 14.855469 4.835938 15.113281 4.976562 15.296875 C 5.042969 15.390625 5.097656 15.464844 5.136719 15.511719 L 5.179688 15.570312 L 5.1875 15.585938 L 5.191406 15.585938 C 5.515625 16.035156 6.140625 16.132812 6.585938 15.808594 C 7.035156 15.484375 7.132812 14.859375 6.808594 14.414062 L 6 15 C 6.808594 14.414062 6.808594 14.414062 6.808594 14.414062 L 6.804688 14.40625 L 6.792969 14.386719 L 6.746094 14.324219 C 6.703125 14.269531 6.644531 14.191406 6.574219 14.09375 C 6.425781 13.898438 6.21875 13.628906 5.972656 13.316406 C 5.890625 13.214844 5.808594 13.109375 5.71875 13 L 14 13 L 14 11 Z M 5.71875 11 "/>
</g>
</svg>
