<?xml version="1.0" encoding="UTF-8"?>
<svg xmlns="http://www.w3.org/2000/svg" xmlns:xlink="http://www.w3.org/1999/xlink" width="px" height="24px" viewBox="0 0 24 24" version="1.1">
<g id="surface1">
<path style="fill:none;stroke-width:2;stroke-linecap:butt;stroke-linejoin:miter;stroke:rgb(100%,100%,100%);stroke-opacity:1;stroke-miterlimit:4;" d="M 10.519531 3.625 C 11.316406 2.753906 12.683594 2.753906 13.480469 3.625 L 14.214844 4.429688 C 14.613281 4.871094 15.191406 5.109375 15.785156 5.082031 L 16.878906 5.03125 C 18.054688 4.976562 19.023438 5.945312 18.96875 7.121094 L 18.917969 8.214844 C 18.890625 8.808594 19.128906 9.386719 19.570312 9.785156 L 20.375 10.519531 C 21.246094 11.316406 21.246094 12.683594 20.375 13.480469 L 19.570312 14.214844 C 19.128906 14.613281 18.890625 15.191406 18.917969 15.785156 L 18.96875 16.878906 C 19.023438 18.054688 18.054688 19.023438 16.878906 18.96875 L 15.785156 18.917969 C 15.191406 18.890625 14.613281 19.128906 14.214844 19.570312 L 13.480469 20.375 C 12.683594 21.246094 11.316406 21.246094 10.519531 20.375 L 9.785156 19.570312 C 9.386719 19.128906 8.808594 18.890625 8.214844 18.917969 L 7.121094 18.96875 C 5.945312 19.023438 4.976562 18.054688 5.03125 16.878906 L 5.082031 15.785156 C 5.109375 15.191406 4.871094 14.613281 4.429688 14.214844 L 3.625 13.480469 C 2.753906 12.683594 2.753906 11.316406 3.625 10.519531 L 4.429688 9.785156 C 4.871094 9.386719 5.109375 8.808594 5.082031 8.214844 L 5.03125 7.121094 C 4.976562 5.945312 5.945312 4.976562 7.121094 5.03125 L 8.214844 5.082031 C 8.808594 5.109375 9.386719 4.871094 9.785156 4.429688 Z M 10.519531 3.625 "/>
<path style="fill:none;stroke-width:2;stroke-linecap:butt;stroke-linejoin:miter;stroke:rgb(100%,100%,100%);stroke-opacity:1;stroke-miterlimit:4;" d="M 15 12 C 15 13.65625 13.65625 15 12 15 C 10.34375 15 9 13.65625 9 12 C 9 10.34375 10.34375 9 12 9 C 13.65625 9 15 10.34375 15 12 Z M 15 12 "/>
</g>
</svg>
