<?xml version="1.0" encoding="UTF-8"?>
<svg xmlns="http://www.w3.org/2000/svg" xmlns:xlink="http://www.w3.org/1999/xlink" width="px" height="24px" viewBox="0 0 24 24" version="1.1">
<g id="surface1">
<path style=" stroke:none;fill-rule:evenodd;fill:rgb(100%,100%,100%);fill-opacity:1;" d="M 2 6 C 2 4.339844 3.339844 3 5 3 L 19 3 C 20.660156 3 22 4.339844 22 6 L 22 15 C 22 16.660156 20.660156 18 19 18 L 13 18 L 13 19 L 15 19 C 15.550781 19 16 19.449219 16 20 C 16 20.550781 15.550781 21 15 21 L 9 21 C 8.449219 21 8 20.550781 8 20 C 8 19.449219 8.449219 19 9 19 L 11 19 L 11 18 L 5 18 C 3.339844 18 2 16.660156 2 15 Z M 5 5 C 4.449219 5 4 5.449219 4 6 L 4 15 C 4 15.550781 4.449219 16 5 16 L 19 16 C 19.550781 16 20 15.550781 20 15 L 20 6 C 20 5.449219 19.550781 5 19 5 Z M 5 5 "/>
</g>
</svg>
